<svg width="179" height="36" viewBox="0 0 179 36" fill="none" xmlns="http://www.w3.org/2000/svg">
<path fill-rule="evenodd" clip-rule="evenodd" d="M179 18C179 15.213 179 13.8195 178.815 12.6535C177.799 6.2351 172.765 1.20125 166.347 0.184675C165.181 0 163.787 0 161 0H23C20.213 0 18.8195 0 17.6535 0.184675C11.2351 1.20125 6.20125 6.2351 5.18468 12.6535C5.00001 13.8195 5.00001 15.213 5.00001 18C5.00001 20.787 5.00001 22.1805 5.18468 23.3465C6.20125 29.7649 11.2351 34.7988 17.6535 35.8153C18.8195 36 20.213 36 23 36H161C163.787 36 165.181 36 166.347 35.8153C172.765 34.7988 177.799 29.7649 178.815 23.3465C179 22.1805 179 20.787 179 18Z" fill="#E6E5EB"/>
<path d="M20 22C20 29.732 13.732 36 6.00005 36H4.76837e-05V35.668C2.49609 33.5718 4.24734 30.6212 4.80962 27.252C5.00056 26.1077 5.00005 24.7383 5.00005 22H20Z" fill="#E6E5EB"/>
</svg>
